<svg version="1.1" id="Layer_1" xmlns="http://www.w3.org/2000/svg" xmlns:xlink="http://www.w3.org/1999/xlink" x="0px" y="0px"
	 width="100%" viewBox="0 0 1281 1210" enable-background="new 0 0 1281 1210" xml:space="preserve">
<path fill="#F5BA20" opacity="1.000000" stroke="none" 
	d="
M1.000000,611.000000 
	C1.000000,608.629211 1.000000,606.258362 1.246194,603.780518 
	C2.509388,602.426270 3.711118,601.286804 4.512205,599.913635 
	C8.517385,593.048340 12.350270,586.082397 16.367565,579.224304 
	C27.276302,560.601868 38.301819,542.047668 49.180107,523.407593 
	C62.598110,500.415710 75.861977,477.333893 89.289619,454.347656 
	C101.732574,433.047058 114.355751,411.851715 126.800079,390.551910 
	C135.391846,375.846252 143.740860,360.998749 152.330750,346.291992 
	C163.296448,327.517609 174.463638,308.860901 185.417007,290.079407 
	C195.388382,272.981720 205.134872,255.752533 215.180145,238.698914 
	C215.915695,237.450180 218.498352,236.229202 219.838669,236.558167 
	C236.365662,240.614609 253.295395,241.815964 270.099487,241.831192 
	C535.421387,242.071518 800.743530,242.000000 1066.065674,242.000000 
	C1110.563843,242.000000 1155.061890,242.017059 1199.560059,241.962387 
	C1202.588867,241.958664 1204.612183,242.535446 1206.323853,245.546249 
	C1216.835938,264.037689 1227.582275,282.396759 1238.344238,300.744904 
	C1250.503906,321.476318 1262.709839,342.181152 1275.031372,362.816559 
	C1276.989258,366.095642 1279.659180,368.949554 1282.000000,372.000000 
	C1282.000000,373.388885 1282.000000,374.777802 1281.741943,376.226379 
	C1270.160645,381.125244 1258.869751,386.041962 1247.507324,390.787262 
	C1224.214111,400.515015 1200.852783,410.079529 1177.575317,419.844238 
	C1153.240601,430.052368 1128.997559,440.479218 1104.666260,450.695465 
	C1079.002441,461.471130 1053.256470,472.051178 1027.592896,482.827362 
	C1003.262268,493.043884 979.024353,503.481201 954.686279,513.679932 
	C927.567017,525.044006 900.380859,536.248413 873.154968,547.550903 
	C869.538330,540.299438 865.872314,532.927795 862.187744,525.565552 
	C855.118835,511.441040 845.598511,499.006470 834.873474,487.575623 
	C828.577026,480.864655 821.342773,475.019165 814.403442,468.928955 
	C802.278076,458.287262 788.235168,450.532379 773.530579,444.419891 
	C749.251526,434.327423 723.937256,429.336517 697.337891,430.809357 
	C681.715332,431.674377 666.582520,434.158508 651.693970,438.692871 
	C632.561768,444.519684 615.141907,453.771912 599.071167,465.522034 
	C585.608704,475.365173 573.749146,487.088501 563.558105,500.196899 
	C552.281738,514.701233 543.069946,530.571838 536.536499,547.888977 
	C529.897217,565.486938 525.068665,583.624390 524.259949,602.349915 
	C523.628174,616.977661 524.624390,631.781616 526.180359,646.370422 
	C528.028748,663.700317 533.290344,680.303711 540.631653,696.143616 
	C552.209412,721.124023 567.689941,743.333435 589.325500,760.597595 
	C599.967896,769.089722 611.048950,777.445923 623.042480,783.749817 
	C653.455872,799.735352 686.026978,807.191101 720.487061,802.843750 
	C733.641602,801.184143 746.839294,798.634399 759.538940,794.874451 
	C781.441345,788.389954 800.917175,777.069519 818.389709,762.214722 
	C835.070740,748.033020 849.235718,731.843567 860.033203,712.766357 
	C863.209839,707.153687 866.318665,701.502625 869.387329,695.996948 
	C888.107910,704.901794 906.454712,713.586487 924.763794,722.349915 
	C943.376770,731.258850 961.952576,740.245422 980.544678,749.198059 
	C999.136780,758.150757 1017.732117,767.096497 1036.319946,776.057922 
	C1055.055298,785.090332 1073.780762,794.143250 1092.515015,803.177917 
	C1111.100586,812.140808 1129.708130,821.058167 1148.276245,830.057007 
	C1172.266113,841.683533 1196.223999,853.375977 1220.202026,865.026917 
	C1223.704956,866.728882 1227.264038,868.315796 1230.760986,870.029419 
	C1238.914185,874.024902 1247.045410,878.065186 1255.484375,882.234985 
	C1254.425903,883.820312 1253.654907,884.843140 1253.020874,885.944824 
	C1242.989014,903.377686 1233.083374,920.884338 1222.928833,938.245300 
	C1209.736206,960.800659 1196.232422,983.174255 1183.075073,1005.750000 
	C1168.210571,1031.255005 1153.662476,1056.944092 1138.825806,1082.465332 
	C1126.346436,1103.931519 1113.655273,1125.274536 1101.048462,1146.666504 
	C1092.483276,1161.200684 1083.832153,1175.684692 1075.358643,1190.271973 
	C1071.402466,1197.082520 1067.775879,1204.084717 1064.000000,1211.000000 
	C827.641785,1211.000000 591.283508,1211.000000 354.815552,1210.759033 
	C342.674316,1189.732788 330.731567,1168.895508 318.587921,1148.176147 
	C304.810303,1124.668823 290.788361,1101.304688 276.991669,1077.808472 
	C262.866150,1053.752441 248.946869,1029.575317 234.822449,1005.518494 
	C220.943573,981.879944 206.861069,958.360901 192.977051,934.725281 
	C178.846481,910.669922 164.938568,886.483643 150.769363,862.451233 
	C134.949936,835.619812 118.834938,808.962524 103.053352,782.109070 
	C86.538315,754.007629 70.325005,725.729187 53.871883,697.591187 
	C38.314663,670.985413 22.656387,644.438354 6.919539,617.938538 
	C5.389729,615.362427 2.993856,613.300537 1.000000,611.000000 
z"/>
<path fill="#000000" opacity="1.000000" stroke="none" 
	d="
M1064.468628,1211.000000 
	C1067.775879,1204.084717 1071.402466,1197.082520 1075.358643,1190.271973 
	C1083.832153,1175.684692 1092.483276,1161.200684 1101.048462,1146.666504 
	C1113.655273,1125.274536 1126.346436,1103.931519 1138.825806,1082.465332 
	C1153.662476,1056.944092 1168.210571,1031.255005 1183.075073,1005.750000 
	C1196.232422,983.174255 1209.736206,960.800659 1222.928833,938.245300 
	C1233.083374,920.884338 1242.989014,903.377686 1253.020874,885.944824 
	C1253.654907,884.843140 1254.425903,883.820312 1255.484375,882.234985 
	C1247.045410,878.065186 1238.914185,874.024902 1230.760986,870.029419 
	C1227.264038,868.315796 1223.704956,866.728882 1220.202026,865.026917 
	C1196.223999,853.375977 1172.266113,841.683533 1148.276245,830.057007 
	C1129.708130,821.058167 1111.100586,812.140808 1092.515015,803.177917 
	C1073.780762,794.143250 1055.055298,785.090332 1036.319946,776.057922 
	C1017.732117,767.096497 999.136780,758.150757 980.544678,749.198059 
	C961.952576,740.245422 943.376770,731.258850 924.763794,722.349915 
	C906.454712,713.586487 888.107910,704.901794 869.387329,695.996948 
	C866.318665,701.502625 863.209839,707.153687 860.033203,712.766357 
	C849.235718,731.843567 835.070740,748.033020 818.389709,762.214722 
	C800.917175,777.069519 781.441345,788.389954 759.538940,794.874451 
	C746.839294,798.634399 733.641602,801.184143 720.487061,802.843750 
	C686.026978,807.191101 653.455872,799.735352 623.042480,783.749817 
	C611.048950,777.445923 599.967896,769.089722 589.325500,760.597595 
	C567.689941,743.333435 552.209412,721.124023 540.631653,696.143616 
	C533.290344,680.303711 528.028748,663.700317 526.180359,646.370422 
	C524.624390,631.781616 523.628174,616.977661 524.259949,602.349915 
	C525.068665,583.624390 529.897217,565.486938 536.536499,547.888977 
	C543.069946,530.571838 552.281738,514.701233 563.558105,500.196899 
	C573.749146,487.088501 585.608704,475.365173 599.071167,465.522034 
	C615.141907,453.771912 632.561768,444.519684 651.693970,438.692871 
	C666.582520,434.158508 681.715332,431.674377 697.337891,430.809357 
	C723.937256,429.336517 749.251526,434.327423 773.530579,444.419891 
	C788.235168,450.532379 802.278076,458.287262 814.403442,468.928955 
	C821.342773,475.019165 828.577026,480.864655 834.873474,487.575623 
	C845.598511,499.006470 855.118835,511.441040 862.187744,525.565552 
	C865.872314,532.927795 869.538330,540.299438 873.154968,547.550903 
	C900.380859,536.248413 927.567017,525.044006 954.686279,513.679932 
	C979.024353,503.481201 1003.262268,493.043884 1027.592896,482.827362 
	C1053.256470,472.051178 1079.002441,461.471130 1104.666260,450.695465 
	C1128.997559,440.479218 1153.240601,430.052368 1177.575317,419.844238 
	C1200.852783,410.079529 1224.214111,400.515015 1247.507324,390.787262 
	C1258.869751,386.041962 1270.160645,381.125244 1281.741943,376.643066 
	C1282.000000,654.884399 1282.000000,932.768799 1282.000000,1211.000000 
	C1209.646118,1211.000000 1137.291748,1211.000000 1064.468628,1211.000000 
z"/>
<path fill="#000000" opacity="1.000000" stroke="none" 
	d="
M1282.000000,371.531342 
	C1279.659180,368.949554 1276.989258,366.095642 1275.031372,362.816559 
	C1262.709839,342.181152 1250.503906,321.476318 1238.344238,300.744904 
	C1227.582275,282.396759 1216.835938,264.037689 1206.323853,245.546249 
	C1204.612183,242.535446 1202.588867,241.958664 1199.560059,241.962387 
	C1155.061890,242.017059 1110.563843,242.000000 1066.065674,242.000000 
	C800.743530,242.000000 535.421387,242.071518 270.099487,241.831192 
	C253.295395,241.815964 236.365662,240.614609 219.838669,236.558167 
	C218.498352,236.229202 215.915695,237.450180 215.180145,238.698914 
	C205.134872,255.752533 195.388382,272.981720 185.417007,290.079407 
	C174.463638,308.860901 163.296448,327.517609 152.330750,346.291992 
	C143.740860,360.998749 135.391846,375.846252 126.800079,390.551910 
	C114.355751,411.851715 101.732574,433.047058 89.289619,454.347656 
	C75.861977,477.333893 62.598110,500.415710 49.180107,523.407593 
	C38.301819,542.047668 27.276302,560.601868 16.367565,579.224304 
	C12.350270,586.082397 8.517385,593.048340 4.512205,599.913635 
	C3.711118,601.286804 2.509388,602.426270 1.246194,603.336731 
	C1.000000,402.425354 1.000000,201.850723 1.000000,1.000000 
	C118.020752,1.000000 235.041718,1.000000 352.883301,1.238344 
	C352.544342,3.443295 351.374664,5.404036 350.226776,7.377450 
	C342.398346,20.835665 334.561981,34.289291 326.752472,47.758499 
	C318.129700,62.630459 309.572266,77.540443 300.913574,92.391418 
	C292.329102,107.115166 283.646637,121.781738 275.021210,136.481628 
	C268.982788,146.772583 262.967987,157.077408 256.726746,167.744995 
	C558.127747,167.744995 858.924316,167.744995 1160.293091,167.744995 
	C1156.225342,160.588196 1152.489502,153.814621 1148.567139,147.150772 
	C1135.555908,125.045784 1122.480591,102.978508 1109.424194,80.900200 
	C1099.755615,64.551064 1090.002686,48.251282 1080.432129,31.845091 
	C1074.481812,21.644835 1068.801514,11.287082 1063.000000,0.999997 
	C1135.945801,1.000000 1208.891724,1.000000 1282.000000,1.000000 
	C1282.000000,124.354179 1282.000000,247.708435 1282.000000,371.531342 
z"/>
<path fill="#F5BA20" opacity="1.000000" stroke="none" 
	d="
M1062.531372,0.999997 
	C1068.801514,11.287082 1074.481812,21.644835 1080.432129,31.845091 
	C1090.002686,48.251282 1099.755615,64.551064 1109.424194,80.900200 
	C1122.480591,102.978508 1135.555908,125.045784 1148.567139,147.150772 
	C1152.489502,153.814621 1156.225342,160.588196 1160.293091,167.744995 
	C858.924316,167.744995 558.127747,167.744995 256.726746,167.744995 
	C262.967987,157.077408 268.982788,146.772583 275.021210,136.481628 
	C283.646637,121.781738 292.329102,107.115166 300.913574,92.391418 
	C309.572266,77.540443 318.129700,62.630459 326.752472,47.758499 
	C334.561981,34.289291 342.398346,20.835665 350.226776,7.377450 
	C351.374664,5.404036 352.544342,3.443295 353.351990,1.238344 
	C589.354248,1.000000 825.708496,1.000000 1062.531372,0.999997 
z"/>
<path fill="#000000" opacity="1.000000" stroke="none" 
	d="
M1.000000,611.468628 
	C2.993856,613.300537 5.389729,615.362427 6.919539,617.938538 
	C22.656387,644.438354 38.314663,670.985413 53.871883,697.591187 
	C70.325005,725.729187 86.538315,754.007629 103.053352,782.109070 
	C118.834938,808.962524 134.949936,835.619812 150.769363,862.451233 
	C164.938568,886.483643 178.846481,910.669922 192.977051,934.725281 
	C206.861069,958.360901 220.943573,981.879944 234.822449,1005.518494 
	C248.946869,1029.575317 262.866150,1053.752441 276.991669,1077.808472 
	C290.788361,1101.304688 304.810303,1124.668823 318.587921,1148.176147 
	C330.731567,1168.895508 342.674316,1189.732788 354.352905,1210.759033 
	C236.387344,1211.000000 118.774704,1211.000000 1.000000,1211.000000 
	C1.000000,1011.312439 1.000000,811.624878 1.000000,611.468628 
z"/>
</svg>